<svg data-v-0dd9719b="" version="1.0" xmlns="http://www.w3.org/2000/svg" xmlns:xlink="http://www.w3.org/1999/xlink" width="100%" height="100%" viewBox="0 0 340.000000 250.000000" preserveAspectRatio="xMidYMid meet" color-interpolation-filters="sRGB" style="margin: auto;"> <rect data-v-0dd9719b="" x="0" y="0" width="100%" height="100%" fill="#fff" fill-opacity="1" class="background"/> <rect data-v-0dd9719b="" x="0" y="0" width="100%" height="100%" fill="url(#watermark)" fill-opacity="1" class="watermarklayer"/> <g data-v-0dd9719b="" fill="#333" class="icon-text-wrapper icon-svg-group iconsvg" transform="translate(81.40499877929688,81.55805206298828)"><g class="iconsvg-imagesvg" transform="translate(58.595001220703125,0)"><g><rect fill="#333" fill-opacity="0" stroke-width="2" x="0" y="0" width="60" height="59.9238966512529" class="image-rect"/> <svg x="0" y="0" width="60" height="59.9238966512529" filtersec="colorsb5964837977" class="image-svg-svg primary" style="overflow: visible;"><svg xmlns="http://www.w3.org/2000/svg" viewBox="-0.013412523083388805 0 100.12681579589844 100"><g fill-rule="evenodd"><path d="M50.05 64.56a33.61 33.61 0 0 1-33.61-33.62 2.25 2.25 0 0 1 4.5 0 29.11 29.11 0 0 0 29.11 29.12 9 9 0 1 1 0 18 2.25 2.25 0 1 1 0-4.49 4.5 4.5 0 0 0 3.19-1.33 4.51 4.51 0 0 0-3.19-7.69zm0-12.31a21.31 21.31 0 0 1-2.25-42.5V0a50.05 50.05 0 0 0 0 100v-9.74a21.27 21.27 0 0 1-13.54-6.9 2.24 2.24 0 1 1 3.32-3 17 17 0 0 0 5.66 4.1 16.82 16.82 0 1 0 6.81-32.2z" fill="#0d72ff"/><path d="M50.05 35.45a33.63 33.63 0 0 1 33.62 33.62 2.25 2.25 0 0 1-4.5 0A29.12 29.12 0 0 0 50.05 40a9 9 0 0 1 0-18 2.25 2.25 0 0 1 0 4.5 4.51 4.51 0 1 0 0 9zm0 12.3a21.32 21.32 0 0 1 2.25 42.51V100a50.05 50.05 0 0 0 0-100v9.75a21.36 21.36 0 0 1 13.55 6.89 2.24 2.24 0 0 1-3.33 3 16.82 16.82 0 1 0-12.47 28.1z" fill="#0daeff"/></g></svg></svg> <!----></g></g> <g transform="translate(0,66.92389678955078)"><g data-gra="path-name" fill-rule="" class="tp-name iconsvg-namesvg"><g transform="scale(1)"><g><path d="M4.86 3.18L4.86 3.18 2.64 3.18 2.64-13.97 1.79-13.97 1.79-16.21 4.86-16.21 4.86 3.18ZM16.13 3.18L16.13 3.18 13.91 3.18 13.91-16.21 16.13-16.21 16.13 3.18ZM15.02-5.79L15.02-5.79 2.84-5.79 2.84-8.04 15.02-8.04 15.02-5.79ZM24.73 3.21L24.73 3.21Q23.43 3.21 22.36 2.73 21.3 2.24 20.54 1.36 19.79 0.48 19.38-0.77 18.97-2.02 18.97-3.55L18.97-3.55Q18.97-4.69 19.35-5.81 19.73-6.93 20.47-7.81 21.21-8.69 22.25-9.23 23.28-9.77 24.62-9.77L24.62-9.77Q25.81-9.77 26.83-9.31 27.86-8.86 28.59-8.05 29.33-7.24 29.74-6.12 30.16-5 30.16-3.66L30.16-3.66 30.16-2.5 21.35-2.5Q21.44-1.93 21.62-1.33 21.81-0.74 22.19-0.24 22.57 0.26 23.2 0.58 23.82 0.91 24.73 0.91L24.73 0.91Q25.24 0.91 25.74 0.68 26.24 0.45 26.66 0.14 27.09-0.17 27.42-0.5 27.74-0.82 27.88-1.02L27.88-1.02 29.7 0.43Q29.62 0.54 29.2 0.98 28.79 1.42 28.13 1.92 27.46 2.41 26.59 2.81 25.73 3.21 24.73 3.21ZM24.62-7.47L24.62-7.47Q23.37-7.47 22.56-6.67 21.75-5.88 21.44-4.8L21.44-4.8 27.71-4.8Q27.46-5.88 26.71-6.67 25.95-7.47 24.62-7.47ZM36.35 1.08L35.15 3.07Q35.1 3.04 34.66 2.74 34.22 2.44 33.71 1.87 33.19 1.31 32.78 0.5 32.37-0.31 32.37-1.33L32.37-1.33 32.37-14.31 31.63-14.31 31.63-16.64 34.73-16.64 34.73-1.33Q34.73-0.8 34.98-0.35 35.24 0.09 35.54 0.4 35.84 0.71 36.09 0.89 36.35 1.08 36.35 1.08L36.35 1.08ZM42.14 1.08L40.95 3.07Q40.89 3.04 40.45 2.74 40.01 2.44 39.5 1.87 38.99 1.31 38.58 0.5 38.16-0.31 38.16-1.33L38.16-1.33 38.16-14.31 37.43-14.31 37.43-16.64 40.52-16.64 40.52-1.33Q40.52-0.8 40.78-0.35 41.03 0.09 41.33 0.4 41.63 0.71 41.88 0.89 42.14 1.08 42.14 1.08L42.14 1.08ZM49.58-9.97L49.58-9.97Q50.86-9.97 51.96-9.44 53.07-8.92 53.91-8.02 54.75-7.13 55.23-5.93 55.71-4.74 55.71-3.38L55.71-3.38Q55.71-2.02 55.23-0.81 54.75 0.4 53.91 1.29 53.07 2.19 51.96 2.71 50.86 3.24 49.58 3.24L49.58 3.24Q48.3 3.24 47.19 2.71 46.09 2.19 45.25 1.29 44.41 0.4 43.93-0.81 43.45-2.02 43.45-3.38L43.45-3.38Q43.45-4.74 43.93-5.93 44.41-7.13 45.25-8.02 46.09-8.92 47.19-9.44 48.3-9.97 49.58-9.97ZM49.58 0.85L49.58 0.85Q50.35 0.85 51.03 0.53 51.71 0.2 52.22-0.38 52.73-0.97 53.03-1.73 53.33-2.5 53.33-3.38L53.33-3.38Q53.33-4.23 53.03-5 52.73-5.76 52.22-6.35 51.71-6.93 51.03-7.26 50.35-7.58 49.58-7.58L49.58-7.58Q48.81-7.58 48.13-7.26 47.45-6.93 46.94-6.35 46.43-5.76 46.13-5 45.83-4.23 45.83-3.38L45.83-3.38Q45.83-2.5 46.13-1.73 46.43-0.97 46.94-0.38 47.45 0.2 48.13 0.53 48.81 0.85 49.58 0.85ZM82.97-16.27L82.97 3.27 80.73 3.27 80.73-14.03 80.59-14.03 76.1-2.39 74.11-2.39 69.65-14.03 69.48-14.03 69.48 3.27 67.27 3.27 67.27-14.03 66.64-14.03 66.64-16.27 71.19-16.27 75.11-5.99 79.05-16.27 82.97-16.27ZM91.97 3.21L91.97 3.21Q90.67 3.21 89.6 2.73 88.54 2.24 87.79 1.36 87.03 0.48 86.62-0.77 86.21-2.02 86.21-3.55L86.21-3.55Q86.21-4.69 86.59-5.81 86.98-6.93 87.71-7.81 88.45-8.69 89.49-9.23 90.53-9.77 91.86-9.77L91.86-9.77Q93.05-9.77 94.07-9.31 95.1-8.86 95.84-8.05 96.57-7.24 96.99-6.12 97.4-5 97.4-3.66L97.4-3.66 97.4-2.5 88.59-2.5Q88.68-1.93 88.86-1.33 89.05-0.74 89.43-0.24 89.82 0.26 90.44 0.58 91.06 0.91 91.97 0.91L91.97 0.91Q92.48 0.91 92.98 0.68 93.48 0.45 93.9 0.14 94.33-0.17 94.66-0.5 94.98-0.82 95.13-1.02L95.13-1.02 96.94 0.43Q96.86 0.54 96.45 0.98 96.03 1.42 95.37 1.92 94.7 2.41 93.83 2.81 92.97 3.21 91.97 3.21ZM91.86-7.47L91.86-7.47Q90.61-7.47 89.8-6.67 88.99-5.88 88.68-4.8L88.68-4.8 94.96-4.8Q94.7-5.88 93.95-6.67 93.19-7.47 91.86-7.47ZM107.59-9.54L107.59-7.33 104.27-7.33 104.27-2.7Q104.27 0.65 106.6 0.65L106.6 0.65 106.6 2.87Q104.47 2.87 103.25 1.38 102.03-0.11 102.03-2.7L102.03-2.7 102.03-7.33 98.9-7.33 98.9-9.54 102.03-9.54 102.03-10.99 101.37-10.99 101.37-13.2 104.27-13.2 104.27-9.54 107.59-9.54ZM120.54-5.08L120.54 2.95 118.21 2.95 118.21 1.99Q118.04 2.07 117.9 2.19L117.9 2.19Q117.13 2.64 116.08 2.95L116.08 2.95Q115.43 3.18 114.85 3.25 114.26 3.32 113.78 3.32L113.78 3.32Q113.13 3.32 112.63 3.21 112.13 3.1 111.77 2.95L111.77 2.95Q110.97 2.64 110.42 2.07 109.86 1.5 109.61 0.8L109.61 0.8Q109.47 0.45 109.41-0.14 109.35-0.74 109.62-1.46 109.89-2.19 110.64-2.95 111.4-3.72 112.9-4.4L112.9-4.4Q113.7-4.77 114.66-5.05 115.63-5.34 116.48-5.54 117.33-5.74 117.9-5.85L117.9-5.85Q118.04-5.88 118.15-5.88L118.15-5.88Q118.13-5.99 118.1-6.11L118.1-6.11Q118.01-6.64 117.61-7.04L117.61-7.04Q116.9-7.7 115.29-7.61L115.29-7.61Q114.41-7.55 113.64-7.26 112.87-6.96 112.3-6.62 111.74-6.28 111.4-5.99L111.4-5.99 111.06-5.71 109.44-7.38Q109.47-7.41 109.91-7.79 110.35-8.18 111.11-8.63 111.88-9.09 112.92-9.48 113.95-9.88 115.17-9.94L115.17-9.94Q117.81-10.08 119.2-8.72L119.2-8.72Q119.72-8.23 119.99-7.7 120.26-7.16 120.38-6.64 120.51-6.13 120.53-5.72 120.54-5.31 120.54-5.08L120.54-5.08ZM117.05-3.32L117.05-3.32Q116.28-3.15 115.41-2.9 114.55-2.64 113.87-2.33L113.87-2.33Q113.58-2.19 113.16-1.96 112.73-1.73 112.38-1.42 112.02-1.11 111.82-0.74 111.62-0.37 111.77 0.03L111.77 0.03Q111.82 0.2 112.05 0.44 112.28 0.68 112.72 0.85 113.16 1.02 113.82 1.04 114.49 1.05 115.43 0.77L115.43 0.77Q116.17 0.54 116.72 0.23 117.27-0.09 117.61-0.4L117.61-0.4Q117.96-0.68 118.21-0.99L118.21-0.99 118.21-3.55Q117.7-3.46 117.05-3.32ZM133.2-7.72L129.29 2.53 126.9 2.53 122.95-7.72 122.3-7.72 122.3-9.97 124.49-9.97 128.06-0.57 131.67-9.97 133.86-9.97 133.86-7.72 133.2-7.72ZM141.44 3.21L141.44 3.21Q140.13 3.21 139.07 2.73 138 2.24 137.25 1.36 136.5 0.48 136.09-0.77 135.67-2.02 135.67-3.55L135.67-3.55Q135.67-4.69 136.06-5.81 136.44-6.93 137.18-7.81 137.92-8.69 138.95-9.23 139.99-9.77 141.33-9.77L141.33-9.77Q142.52-9.77 143.54-9.31 144.56-8.86 145.3-8.05 146.04-7.24 146.45-6.12 146.86-5 146.86-3.66L146.86-3.66 146.86-2.5 138.06-2.5Q138.14-1.93 138.33-1.33 138.51-0.74 138.9-0.24 139.28 0.26 139.91 0.58 140.53 0.91 141.44 0.91L141.44 0.91Q141.95 0.91 142.45 0.68 142.94 0.45 143.37 0.14 143.8-0.17 144.12-0.5 144.45-0.82 144.59-1.02L144.59-1.02 146.41 0.43Q146.32 0.54 145.91 0.98 145.5 1.42 144.83 1.92 144.16 2.41 143.3 2.81 142.43 3.21 141.44 3.21ZM141.33-7.47L141.33-7.47Q140.08-7.47 139.27-6.67 138.46-5.88 138.14-4.8L138.14-4.8 144.42-4.8Q144.16-5.88 143.41-6.67 142.66-7.47 141.33-7.47ZM151.18-4.91L151.18 2.9 148.85 2.9 148.85-10.05 151.18-10.05 151.18-9.06Q151.86-9.54 152.7-9.82 153.54-10.11 154.44-10.11L154.44-10.11 154.44-7.81Q153.82-7.81 153.25-7.58 152.68-7.35 152.26-6.97 151.83-6.59 151.55-6.05 151.26-5.51 151.18-4.91L151.18-4.91ZM160.72 3.12L160.72 3.12Q160.52 3.12 160.34 3.12 160.15 3.12 159.98 3.1L159.98 3.1Q158.22 2.92 157.07 2 155.92 1.08 155.44-0.54L155.44-0.54 157.57-1.19Q158.14 0.68 160.21 0.88L160.21 0.88Q160.8 0.94 161.37 0.87 161.94 0.8 162.39 0.6 162.85 0.4 163.16 0.13 163.47-0.14 163.56-0.45L163.56-0.45Q163.59-0.6 163.59-0.89 163.59-1.19 163.29-1.53 162.99-1.87 162.27-2.24 161.54-2.61 160.12-2.92L160.12-2.92Q158.85-3.21 157.89-3.83 156.94-4.46 156.46-5.31L156.46-5.31Q155.81-6.56 156.29-7.89L156.29-7.89Q156.74-9.06 157.84-9.74 158.93-10.42 160.38-10.48L160.38-10.48Q161.12-10.51 161.93-10.36 162.74-10.22 163.49-9.85 164.24-9.48 164.88-8.89 165.52-8.29 165.92-7.44L165.92-7.44 163.9-6.47Q163.64-6.96 163.26-7.31 162.88-7.67 162.41-7.88 161.94-8.09 161.44-8.19 160.95-8.29 160.49-8.26L160.49-8.26Q159.87-8.23 159.24-7.96 158.62-7.7 158.39-7.13L158.39-7.13Q158.25-6.76 158.42-6.36L158.42-6.36Q158.65-5.96 159.23-5.62 159.81-5.28 160.58-5.11L160.58-5.11Q163.08-4.57 164.35-3.58L164.35-3.58Q165.26-2.9 165.62-1.97 165.97-1.05 165.75 0L165.75 0Q165.58 0.8 165.08 1.39 164.58 1.99 163.89 2.37 163.19 2.75 162.37 2.94 161.54 3.12 160.72 3.12ZM173.55 3.21L173.55 3.21Q172.25 3.21 171.18 2.73 170.12 2.24 169.37 1.36 168.61 0.48 168.2-0.77 167.79-2.02 167.79-3.55L167.79-3.55Q167.79-4.69 168.17-5.81 168.56-6.93 169.29-7.81 170.03-8.69 171.07-9.23 172.11-9.77 173.44-9.77L173.44-9.77Q174.63-9.77 175.66-9.31 176.68-8.86 177.42-8.05 178.15-7.24 178.57-6.12 178.98-5 178.98-3.66L178.98-3.66 178.98-2.5 170.18-2.5Q170.26-1.93 170.44-1.33 170.63-0.74 171.01-0.24 171.4 0.26 172.02 0.58 172.65 0.91 173.55 0.91L173.55 0.91Q174.07 0.91 174.56 0.68 175.06 0.45 175.49 0.14 175.91-0.17 176.24-0.5 176.56-0.82 176.71-1.02L176.71-1.02 178.52 0.43Q178.44 0.54 178.03 0.98 177.61 1.42 176.95 1.92 176.28 2.41 175.41 2.81 174.55 3.21 173.55 3.21ZM173.44-7.47L173.44-7.47Q172.19-7.47 171.38-6.67 170.57-5.88 170.26-4.8L170.26-4.8 176.54-4.8Q176.28-5.88 175.53-6.67 174.78-7.47 173.44-7.47Z" transform="translate(-1.7899999618530273, 16.639999389648438)"/></g> <!----> <!----> <!----> <!----> <!----> <!----> <!----></g></g> <!----></g></g><defs v-gra="od"/></svg>